<mxfile host="app.diagrams.net" modified="2023-07-08T18:12:09.671Z" agent="Mozilla/5.0 (Windows NT 10.0; Win64; x64) AppleWebKit/537.36 (KHTML, like Gecko) Chrome/113.0.0.0 Safari/537.36 OPR/99.0.0.0 (Edition std-1)" etag="8YZRNmCFtTwSv9LjwNnX" version="21.6.1" type="github">
  <diagram name="Page-1" id="90zJ3aJE29S19_U5xq-6">
    <mxGraphModel dx="899" dy="494" grid="1" gridSize="10" guides="1" tooltips="1" connect="1" arrows="1" fold="1" page="1" pageScale="1" pageWidth="850" pageHeight="1100" math="0" shadow="0">
      <root>
        <mxCell id="0" />
        <mxCell id="1" parent="0" />
        <mxCell id="BVNifk627dvfqcswf3LX-11" value="" style="edgeStyle=orthogonalEdgeStyle;rounded=0;orthogonalLoop=1;jettySize=auto;html=1;endArrow=block;endFill=0;" edge="1" parent="1" source="BVNifk627dvfqcswf3LX-4" target="BVNifk627dvfqcswf3LX-10">
          <mxGeometry relative="1" as="geometry">
            <Array as="points">
              <mxPoint x="185" y="630" />
              <mxPoint x="425" y="630" />
            </Array>
          </mxGeometry>
        </mxCell>
        <mxCell id="BVNifk627dvfqcswf3LX-4" value="Year" style="rounded=0;whiteSpace=wrap;html=1;" vertex="1" parent="1">
          <mxGeometry x="125" y="670" width="120" height="40" as="geometry" />
        </mxCell>
        <mxCell id="BVNifk627dvfqcswf3LX-12" style="edgeStyle=orthogonalEdgeStyle;rounded=0;orthogonalLoop=1;jettySize=auto;html=1;exitX=0.5;exitY=0;exitDx=0;exitDy=0;entryX=0.5;entryY=1;entryDx=0;entryDy=0;endArrow=block;endFill=0;" edge="1" parent="1" source="BVNifk627dvfqcswf3LX-5" target="BVNifk627dvfqcswf3LX-10">
          <mxGeometry relative="1" as="geometry" />
        </mxCell>
        <mxCell id="BVNifk627dvfqcswf3LX-5" value="EngineType" style="rounded=0;whiteSpace=wrap;html=1;" vertex="1" parent="1">
          <mxGeometry x="285" y="670" width="120" height="40" as="geometry" />
        </mxCell>
        <mxCell id="BVNifk627dvfqcswf3LX-13" style="edgeStyle=orthogonalEdgeStyle;rounded=0;orthogonalLoop=1;jettySize=auto;html=1;exitX=0.5;exitY=0;exitDx=0;exitDy=0;entryX=0.5;entryY=1;entryDx=0;entryDy=0;endArrow=block;endFill=0;" edge="1" parent="1" source="BVNifk627dvfqcswf3LX-6" target="BVNifk627dvfqcswf3LX-10">
          <mxGeometry relative="1" as="geometry" />
        </mxCell>
        <mxCell id="BVNifk627dvfqcswf3LX-6" value="DoorCount" style="rounded=0;whiteSpace=wrap;html=1;" vertex="1" parent="1">
          <mxGeometry x="445" y="670" width="120" height="40" as="geometry" />
        </mxCell>
        <mxCell id="BVNifk627dvfqcswf3LX-14" style="edgeStyle=orthogonalEdgeStyle;rounded=0;orthogonalLoop=1;jettySize=auto;html=1;exitX=0.5;exitY=0;exitDx=0;exitDy=0;endArrow=block;endFill=0;" edge="1" parent="1" source="BVNifk627dvfqcswf3LX-7">
          <mxGeometry relative="1" as="geometry">
            <mxPoint x="425" y="590" as="targetPoint" />
          </mxGeometry>
        </mxCell>
        <mxCell id="BVNifk627dvfqcswf3LX-7" value="Color" style="rounded=0;whiteSpace=wrap;html=1;" vertex="1" parent="1">
          <mxGeometry x="605" y="670" width="120" height="40" as="geometry" />
        </mxCell>
        <mxCell id="BVNifk627dvfqcswf3LX-16" value="" style="edgeStyle=orthogonalEdgeStyle;rounded=0;orthogonalLoop=1;jettySize=auto;html=1;endArrow=block;endFill=0;" edge="1" parent="1" source="BVNifk627dvfqcswf3LX-10" target="BVNifk627dvfqcswf3LX-15">
          <mxGeometry relative="1" as="geometry" />
        </mxCell>
        <mxCell id="BVNifk627dvfqcswf3LX-10" value="Model" style="rounded=0;whiteSpace=wrap;html=1;" vertex="1" parent="1">
          <mxGeometry x="365" y="550" width="120" height="40" as="geometry" />
        </mxCell>
        <mxCell id="BVNifk627dvfqcswf3LX-18" value="" style="edgeStyle=orthogonalEdgeStyle;rounded=0;orthogonalLoop=1;jettySize=auto;html=1;endArrow=block;endFill=0;" edge="1" parent="1" source="BVNifk627dvfqcswf3LX-15" target="BVNifk627dvfqcswf3LX-17">
          <mxGeometry relative="1" as="geometry" />
        </mxCell>
        <mxCell id="BVNifk627dvfqcswf3LX-15" value="Make" style="rounded=0;whiteSpace=wrap;html=1;" vertex="1" parent="1">
          <mxGeometry x="365" y="470" width="120" height="40" as="geometry" />
        </mxCell>
        <mxCell id="BVNifk627dvfqcswf3LX-17" value="Vehicle" style="rounded=0;whiteSpace=wrap;html=1;" vertex="1" parent="1">
          <mxGeometry x="365" y="390" width="120" height="40" as="geometry" />
        </mxCell>
      </root>
    </mxGraphModel>
  </diagram>
</mxfile>
